<svg width="103" height="16" viewBox="0 0 103 16" fill="none" xmlns="http://www.w3.org/2000/svg">
<path d="M3.49393 6.44571H8.24086C8.70672 6.44571 9.09225 6.29333 9.39747 5.98857C9.71875 5.68381 9.87939 5.31048 9.87939 4.86857C9.87939 4.4419 9.71875 4.07619 9.39747 3.77143C9.09225 3.46667 8.70672 3.31429 8.24086 3.31429H3.49393V6.44571ZM8.24086 9.73714H0V0H8.24086C8.94768 0 9.61433 0.129524 10.2408 0.388572C10.8673 0.64762 11.4135 0.998096 11.8794 1.44C12.3452 1.8819 12.7067 2.4 12.9637 2.99429C13.2368 3.57333 13.3733 4.1981 13.3733 4.86857C13.3733 5.53905 13.2368 6.17143 12.9637 6.76571C12.7067 7.36 12.3452 7.8781 11.8794 8.32C11.4135 8.76191 10.8673 9.11238 10.2408 9.37143C9.61433 9.61524 8.94768 9.73714 8.24086 9.73714ZM3.49393 16H0V0H3.49393V16ZM9.56614 16L4.60235 9.62286L7.42159 7.65714L13.8793 16H9.56614Z" fill="black"/>
<path d="M22.1801 16C21.2002 16 20.2765 15.8248 19.409 15.4743C18.5576 15.1238 17.8106 14.6438 17.1681 14.0343C16.5255 13.4248 16.0195 12.7162 15.65 11.9086C15.2806 11.0857 15.0958 10.2095 15.0958 9.28V0H18.5897V9.28C18.5897 9.75238 18.6861 10.1943 18.8789 10.6057C19.0717 11.0171 19.3287 11.3752 19.65 11.68C19.9713 11.9848 20.3488 12.2286 20.7825 12.4114C21.2162 12.5943 21.6821 12.6857 22.1801 12.6857C22.678 12.6857 23.1439 12.5943 23.5776 12.4114C24.0114 12.2286 24.3889 11.9848 24.7101 11.68C25.0475 11.3752 25.3045 11.0171 25.4812 10.6057C25.674 10.1943 25.7704 9.75238 25.7704 9.28V0H29.2402V9.28C29.2402 10.2095 29.0555 11.0857 28.686 11.9086C28.3165 12.7162 27.8105 13.4248 27.168 14.0343C26.5415 14.6438 25.7945 15.1238 24.927 15.4743C24.0756 15.8248 23.16 16 22.1801 16Z" fill="black"/>
<path d="M34.277 0L43.3372 9.92V0H46.6624V15.9771H44.036L34.9758 5.39429V16H31.6506V0H34.277Z" fill="black"/>
<path d="M60.4252 0V0.0457151L63.4373 11.5886L66.0637 0H69.6299L65.9914 16H60.9795L58.618 6.94857L56.2807 16H51.2687L47.6302 0H51.1964L53.8229 11.5886L56.8349 0.0457151L56.8108 0H60.4252Z" fill="black"/>
<path d="M80.2584 0L87.439 16H83.6318L82.3547 13.1429H74.2585L72.9573 16H69.1501L76.4512 0H80.2584ZM75.7765 9.82857H80.8608L78.3307 4.20571L75.7765 9.82857Z" fill="black"/>
<path d="M96.8314 9.57714V16H93.3375V9.57714L86.952 0.0228568L91.0724 0L95.0483 5.96571L98.9278 0H103L96.8314 9.57714Z" fill="black"/>
</svg>
